<?xml version="1.0" encoding="UTF-8" standalone="no"?>
<!DOCTYPE svg PUBLIC "-//W3C//DTD SVG 1.1//EN" "http://www.w3.org/Graphics/SVG/1.1/DTD/svg11.dtd">
<svg width="100%" height="100%" viewBox="0 0 1499 625" version="1.1" xmlns="http://www.w3.org/2000/svg" xmlns:xlink="http://www.w3.org/1999/xlink" xml:space="preserve" xmlns:serif="http://www.serif.com/" style="fill-rule:evenodd;clip-rule:evenodd;stroke-miterlimit:10;">
    <g id="Artboard1" transform="matrix(0.820869,0,0,0.918084,-164.883,-141.694)">
        <g id="Layer-1" serif:id="Layer 1" transform="matrix(5.07592,0,0,4.53844,-441.095,-74.0838)">
            <g transform="matrix(1,0,0,1,0,-641.721)">
                <rect x="290.943" y="721.202" width="3.892" height="41.207" style="fill:rgb(239,91,161);"/>
            </g>
            <g transform="matrix(1,0,0,1,309.371,115.421)">
                <path d="M0,-30.675L-0.115,-30.675L-0.115,5.266L-4.007,5.266L-4.007,-35.941L0.401,-35.941L24.208,0.058L24.323,0.058L24.323,-35.941L28.215,-35.941L28.215,5.266L23.693,5.266L0,-30.675Z" style="fill:rgb(239,91,161);fill-rule:nonzero;"/>
            </g>
            <g transform="matrix(1,0,0,1,353.21,95.7346)">
                <path d="M0,8.699L16.139,8.699L8.069,-12.934L0,8.699ZM-10.187,24.953L6.009,-16.254L10.415,-16.254L26.211,24.953L22.206,24.953L17.455,12.019L-1.317,12.019L-6.182,24.953L-10.187,24.953Z" style="fill:rgb(239,91,161);fill-rule:nonzero;"/>
            </g>
            <g transform="matrix(1,0,0,1,306.553,151.867)">
                <path d="M0,-1.488L12.419,-21.347L16.94,-21.347L2.003,1.889L2.003,19.859L-1.889,19.859L-1.889,2.175L-16.598,-21.347L-12.134,-21.347L0,-1.488Z" style="fill:rgb(74,192,173);fill-rule:nonzero;"/>
            </g>
            <g transform="matrix(1,0,0,1,331.218,146.774)">
                <path d="M0,8.699L16.14,8.699L8.071,-12.934L0,8.699ZM-10.187,24.953L6.01,-16.254L10.416,-16.254L26.212,24.953L22.207,24.953L17.456,12.019L-1.315,12.019L-6.181,24.953L-10.187,24.953Z" style="fill:rgb(74,192,173);fill-rule:nonzero;"/>
            </g>
            <g transform="matrix(1,0,0,1,366.873,166.46)">
                <path d="M0,-30.675L-0.115,-30.675L-0.115,5.266L-4.005,5.266L-4.005,-35.941L0.401,-35.941L24.21,0.058L24.324,0.058L24.324,-35.941L28.215,-35.941L28.215,5.266L23.694,5.266L0,-30.675Z" style="fill:rgb(74,192,173);fill-rule:nonzero;"/>
            </g>
            <g transform="matrix(1,0,0,1,410.712,146.774)">
                <path d="M0,8.699L16.139,8.699L8.069,-12.934L0,8.699ZM-10.187,24.953L6.009,-16.254L10.415,-16.254L26.211,24.953L22.206,24.953L17.455,12.019L-1.317,12.019L-6.182,24.953L-10.187,24.953Z" style="fill:rgb(74,192,173);fill-rule:nonzero;"/>
            </g>
            <g transform="matrix(0,-1,-1,0,220.195,65.4844)">
                <path d="M-60.658,-60.658C-94.158,-60.658 -121.316,-33.5 -121.316,0.001C-121.316,33.5 -94.158,60.658 -60.658,60.658C-27.158,60.658 0.001,33.5 0.001,0.001C0.001,-33.5 -27.158,-60.658 -60.658,-60.658" style="fill:rgb(239,91,161);"/>
            </g>
            <g transform="matrix(0,-1,-1,0,220.195,65.4844)">
                <ellipse cx="-60.658" cy="0" rx="60.658" ry="60.658" style="fill:none;stroke:rgb(239,91,161);stroke-width:2.37px;"/>
            </g>
            <g transform="matrix(1,0,0,1,220.284,66.2594)">
                <path d="M0,119.583C-16.471,119.536 -29.809,106.169 -29.809,89.687C-29.809,73.177 -16.424,59.792 0.087,59.792C0.148,59.792 0.209,59.791 0.271,59.792C16.697,59.693 29.982,46.346 29.982,29.896C29.982,13.447 16.697,0.1 0.271,0.001C0.209,0 0.148,0.001 0.087,0.001L0,0.001C-33.022,0.001 -59.791,26.77 -59.791,59.792C-59.791,92.813 -33.022,119.583 0,119.583" style="fill:white;"/>
            </g>
            <g transform="matrix(1,0,0,1,204.746,144.428)">
                <path d="M0,-48.101C-0.765,-47.878 -1.54,-47.673 -2.334,-47.508C-2.394,-47.497 -2.454,-47.484 -2.515,-47.472C-18.702,-44.219 -29.14,-26.43 -25.887,-10.243C-25.18,-6.725 -23.622,-3.52 -21.858,-0.623L-21.756,0C-24.426,-16.294 -13.121,-31.709 3.172,-34.38C3.233,-34.389 3.293,-34.4 3.354,-34.409C4.59,-34.62 5.792,-34.909 6.963,-35.261C2.806,-38.034 0.058,-42.743 0,-48.101" style="fill:rgb(239,91,161);"/>
            </g>
            <g transform="matrix(1,0,0,1,220.371,88.3565)">
                <path d="M0,15.598C-4.307,15.598 -7.799,12.106 -7.799,7.799C-7.799,3.492 -4.307,0 0,0C4.307,0 7.799,3.492 7.799,7.799C7.799,12.106 4.307,15.598 0,15.598" style="fill:rgb(96,195,168);"/>
            </g>
            <g transform="matrix(-1,0,0,1,220.019,163.928)">
                <path d="M0,-15.598C-4.307,-15.598 -7.799,-12.106 -7.799,-7.799C-7.799,-3.492 -4.307,0 0,0C4.307,0 7.799,-3.492 7.799,-7.799C7.799,-12.106 4.307,-15.598 0,-15.598" style="fill:rgb(74,192,173);"/>
            </g>
            <g transform="matrix(1,0,0,1,239.68,128.476)">
                <path d="M0,24.548C0.002,24.559 0.003,24.571 0.005,24.582C0.003,24.571 0.002,24.559 0,24.548M21.851,-10.377C21.144,-13.895 19.586,-17.1 17.822,-19.997L17.72,-20.62C20.305,-4.843 9.787,10.111 -5.675,13.467C-9.273,9.92 -14.209,7.726 -19.661,7.726C-21.276,7.726 -22.838,7.939 -24.342,8.301L-22.433,13.262C-16.925,12.672 -11.061,16.099 -8.163,22.102C-4.84,28.987 -6.598,36.819 -12.019,40.321L-10.153,45.168C-3.947,41.792 0.266,35.215 0.266,27.652C0.266,27.242 0.229,26.842 0.204,26.438L0.204,26.439C15.398,22.313 24.986,5.226 21.851,-10.377" style="fill:white;"/>
            </g>
        </g>
    </g>
</svg>
